G04 (created by PCBNEW-RS274X (2011-07-08)-stable) date Sun 04 Mar 2012 02:24:10 AM EST*
G01*
G70*
G90*
%MOIN*%
G04 Gerber Fmt 3.4, Leading zero omitted, Abs format*
%FSLAX34Y34*%
G04 APERTURE LIST*
%ADD10C,0.006000*%
%ADD11C,0.010700*%
G04 APERTURE END LIST*
G54D10*
G54D11*
X62231Y-43675D02*
X62231Y-42994D01*
X62068Y-42994D01*
X62027Y-43027D01*
X62007Y-43059D01*
X61987Y-43124D01*
X61987Y-43221D01*
X62007Y-43286D01*
X62027Y-43318D01*
X62068Y-43351D01*
X62231Y-43351D01*
X61823Y-43643D02*
X61762Y-43675D01*
X61660Y-43675D01*
X61620Y-43643D01*
X61599Y-43610D01*
X61579Y-43545D01*
X61579Y-43481D01*
X61599Y-43416D01*
X61620Y-43383D01*
X61660Y-43351D01*
X61742Y-43318D01*
X61783Y-43286D01*
X61803Y-43254D01*
X61823Y-43189D01*
X61823Y-43124D01*
X61803Y-43059D01*
X61783Y-43027D01*
X61742Y-42994D01*
X61640Y-42994D01*
X61579Y-43027D01*
X61314Y-42994D02*
X61232Y-42994D01*
X61191Y-43027D01*
X61151Y-43091D01*
X61130Y-43221D01*
X61130Y-43448D01*
X61151Y-43578D01*
X61191Y-43643D01*
X61232Y-43675D01*
X61314Y-43675D01*
X61354Y-43643D01*
X61395Y-43578D01*
X61415Y-43448D01*
X61415Y-43221D01*
X61395Y-43091D01*
X61354Y-43027D01*
X61314Y-42994D01*
X60947Y-42994D02*
X60947Y-43545D01*
X60927Y-43610D01*
X60906Y-43643D01*
X60866Y-43675D01*
X60784Y-43675D01*
X60743Y-43643D01*
X60723Y-43610D01*
X60703Y-43545D01*
X60703Y-42994D01*
X60560Y-42994D02*
X60316Y-42994D01*
X60438Y-43675D02*
X60438Y-42994D01*
X59949Y-43675D02*
X60193Y-43675D01*
X60071Y-43675D02*
X60071Y-42994D01*
X60112Y-43091D01*
X60153Y-43156D01*
X60193Y-43189D01*
M02*
