G04 (created by PCBNEW-RS274X (2011-07-08)-stable) date Sun 04 Mar 2012 02:24:10 AM EST*
G01*
G70*
G90*
%MOIN*%
G04 Gerber Fmt 3.4, Leading zero omitted, Abs format*
%FSLAX34Y34*%
G04 APERTURE LIST*
%ADD10C,0.006000*%
%ADD11C,0.098700*%
%ADD12C,0.075000*%
%ADD13C,0.163700*%
%ADD14R,0.079100X0.079100*%
%ADD15C,0.079100*%
%ADD16C,0.209000*%
%ADD17R,0.209000X0.209000*%
%ADD18R,0.075000X0.075000*%
G04 APERTURE END LIST*
G54D10*
G54D11*
X46390Y-31100D03*
X40390Y-31100D03*
X40390Y-28100D03*
X46390Y-28100D03*
G54D12*
X62800Y-15900D03*
X62800Y-17900D03*
X59800Y-15900D03*
X59800Y-17900D03*
X58500Y-15900D03*
X58500Y-17900D03*
X55500Y-15900D03*
X55500Y-17900D03*
X54100Y-15900D03*
X54100Y-17900D03*
X51100Y-15900D03*
X51100Y-17900D03*
G54D13*
X73462Y-16000D03*
X78135Y-16000D03*
G54D14*
X77550Y-18500D03*
G54D15*
X77050Y-19500D03*
X76550Y-18500D03*
X76050Y-19500D03*
X75550Y-18500D03*
X75050Y-19500D03*
X74550Y-18500D03*
X74050Y-19500D03*
G54D13*
X66462Y-16000D03*
X71135Y-16000D03*
G54D14*
X70550Y-18500D03*
G54D15*
X70050Y-19500D03*
X69550Y-18500D03*
X69050Y-19500D03*
X68550Y-18500D03*
X68050Y-19500D03*
X67550Y-18500D03*
X67050Y-19500D03*
G54D12*
X64400Y-38900D03*
X67400Y-38900D03*
X40100Y-21900D03*
X37100Y-21900D03*
X77950Y-40150D03*
X74950Y-40150D03*
X77950Y-37150D03*
X74950Y-37150D03*
X77950Y-34150D03*
X74950Y-34150D03*
X78000Y-31200D03*
X75000Y-31200D03*
X54500Y-20900D03*
X51500Y-20900D03*
X56700Y-38900D03*
X59700Y-38900D03*
X56100Y-42100D03*
X59100Y-42100D03*
X75600Y-24500D03*
X75600Y-21500D03*
X61100Y-42400D03*
G54D16*
X36100Y-15500D03*
G54D17*
X36100Y-17900D03*
G54D16*
X34100Y-16400D03*
G54D15*
X39300Y-16300D03*
X39300Y-17300D03*
G54D18*
X70800Y-24500D03*
G54D12*
X71800Y-24500D03*
X72800Y-24500D03*
X73800Y-24500D03*
X73800Y-21500D03*
X72800Y-21500D03*
X71800Y-21500D03*
X70800Y-21500D03*
X62600Y-28100D03*
X61600Y-28100D03*
X60600Y-28100D03*
X59600Y-28100D03*
X58600Y-28100D03*
X57600Y-28100D03*
X56600Y-28100D03*
X55600Y-28100D03*
X54600Y-28100D03*
X53600Y-28100D03*
X52600Y-28100D03*
X51600Y-28100D03*
X50600Y-28100D03*
G54D18*
X63600Y-28100D03*
G54D12*
X50600Y-31100D03*
X51600Y-31100D03*
X52600Y-31100D03*
X53600Y-31100D03*
X54600Y-31100D03*
X55600Y-31100D03*
X56600Y-31100D03*
X57600Y-31100D03*
X58600Y-31100D03*
X59600Y-31100D03*
X60600Y-31100D03*
X61600Y-31100D03*
X62600Y-31100D03*
X63600Y-31100D03*
X51100Y-46400D03*
X52100Y-46400D03*
X53100Y-46400D03*
X54100Y-46400D03*
X55100Y-46400D03*
X56100Y-46400D03*
X57100Y-46400D03*
X58100Y-46400D03*
X59100Y-46400D03*
X60100Y-46400D03*
X61100Y-46400D03*
X62100Y-46400D03*
X63100Y-46400D03*
G54D18*
X50100Y-46400D03*
G54D12*
X63100Y-43400D03*
X62100Y-43400D03*
X61100Y-43400D03*
X60100Y-43400D03*
X59100Y-43400D03*
X58100Y-43400D03*
X57100Y-43400D03*
X56100Y-43400D03*
X55100Y-43400D03*
X54100Y-43400D03*
X53100Y-43400D03*
X52100Y-43400D03*
X51100Y-43400D03*
X50100Y-43400D03*
X57600Y-26700D03*
X56600Y-26700D03*
X57700Y-40300D03*
X56700Y-40300D03*
X52500Y-19400D03*
X51500Y-19400D03*
G54D18*
X63000Y-38900D03*
G54D12*
X62000Y-38900D03*
X61000Y-38900D03*
M02*
