M48
;DRILL file {PCBnew (2011-07-08)-stable} date Sun 04 Mar 2012 02:24:27 AM EST
;FORMAT={-:-/ absolute / inch / decimal}
FMAT,2
INCH,TZ
T1C0.025
T2C0.032
T3C0.032
T4C0.035
T5C0.040
T6C0.080
T7C0.100
T8C0.128
%
G90
G05
M72
T1
X3.390Y-1.840
X4.500Y-4.260
X4.640Y-3.260
X4.880Y-4.260
X5.040Y-4.250
X5.500Y-3.890
X5.580Y-4.430
X5.620Y-2.530
X5.660Y-3.230
X5.760Y-2.990
X5.760Y-3.230
X5.770Y-3.770
X5.960Y-2.640
X6.520Y-4.490
X7.800Y-2.280
X7.800Y-3.010
T2
X3.930Y-1.630
X3.930Y-1.730
T3
X3.360Y-5.540
X3.460Y-5.540
X3.660Y-5.540
X3.710Y-2.190
X3.760Y-5.540
X3.860Y-1.940
X3.860Y-2.040
X3.960Y-5.540
X4.010Y-2.190
X4.039Y-2.810
X4.039Y-3.110
X4.060Y-5.540
X4.260Y-5.540
X4.360Y-5.540
X4.560Y-5.540
X4.639Y-2.810
X4.639Y-3.110
X4.660Y-5.540
X4.860Y-5.540
X4.960Y-5.540
X5.010Y-4.340
X5.010Y-4.640
X5.060Y-2.810
X5.060Y-3.110
X5.110Y-1.590
X5.110Y-1.790
X5.110Y-4.340
X5.110Y-4.640
X5.150Y-1.940
X5.150Y-2.090
X5.160Y-2.810
X5.160Y-3.110
X5.160Y-5.540
X5.210Y-4.340
X5.210Y-4.640
X5.250Y-1.940
X5.260Y-2.810
X5.260Y-3.110
X5.260Y-5.540
X5.310Y-4.340
X5.310Y-4.640
X5.360Y-2.810
X5.360Y-3.110
X5.410Y-1.590
X5.410Y-1.790
X5.410Y-4.340
X5.410Y-4.640
X5.450Y-2.090
X5.460Y-2.810
X5.460Y-3.110
X5.460Y-5.540
X5.510Y-4.340
X5.510Y-4.640
X5.550Y-1.590
X5.550Y-1.790
X5.560Y-2.810
X5.560Y-3.110
X5.560Y-5.540
X5.610Y-4.210
X5.610Y-4.340
X5.610Y-4.640
X5.660Y-2.670
X5.660Y-2.810
X5.660Y-3.110
X5.670Y-3.890
X5.670Y-4.030
X5.710Y-4.340
X5.710Y-4.640
X5.760Y-2.670
X5.760Y-2.810
X5.760Y-3.110
X5.760Y-5.540
X5.770Y-4.030
X5.810Y-4.340
X5.810Y-4.640
X5.850Y-1.590
X5.850Y-1.790
X5.860Y-2.810
X5.860Y-3.110
X5.860Y-5.540
X5.910Y-4.210
X5.910Y-4.340
X5.910Y-4.640
X5.960Y-2.810
X5.960Y-3.110
X5.970Y-3.890
X5.980Y-1.590
X5.980Y-1.790
X6.010Y-4.340
X6.010Y-4.640
X6.060Y-2.810
X6.060Y-3.110
X6.060Y-5.540
X6.100Y-3.890
X6.110Y-4.340
X6.110Y-4.640
X6.160Y-2.810
X6.160Y-3.110
X6.160Y-5.540
X6.200Y-3.890
X6.210Y-4.340
X6.210Y-4.640
X6.260Y-2.810
X6.260Y-3.110
X6.280Y-1.590
X6.280Y-1.790
X6.300Y-3.890
X6.310Y-4.340
X6.310Y-4.640
X6.360Y-2.810
X6.360Y-3.110
X6.360Y-5.540
X6.440Y-3.890
X6.460Y-5.540
X6.660Y-5.540
X6.740Y-3.890
X6.760Y-5.540
X6.960Y-5.540
X7.060Y-5.540
X7.080Y-2.150
X7.080Y-2.450
X7.180Y-2.150
X7.180Y-2.450
X7.245Y-3.415
X7.245Y-3.715
X7.245Y-4.015
X7.250Y-3.120
X7.260Y-5.540
X7.280Y-2.150
X7.280Y-2.450
X7.345Y-3.415
X7.345Y-3.715
X7.345Y-4.015
X7.350Y-3.120
X7.360Y-5.540
X7.380Y-2.150
X7.380Y-2.450
X7.495Y-3.415
X7.495Y-3.715
X7.495Y-4.015
X7.500Y-3.120
X7.560Y-2.150
X7.560Y-2.450
X7.560Y-5.540
X7.660Y-5.540
X7.795Y-3.415
X7.795Y-3.715
X7.795Y-4.015
X7.800Y-3.120
X7.860Y-5.540
X7.960Y-5.540
T4
X6.705Y-1.950
X6.755Y-1.850
X6.805Y-1.950
X6.855Y-1.850
X6.905Y-1.950
X6.955Y-1.850
X7.005Y-1.950
X7.055Y-1.850
X7.405Y-1.950
X7.455Y-1.850
X7.505Y-1.950
X7.555Y-1.850
X7.605Y-1.950
X7.655Y-1.850
X7.705Y-1.950
X7.755Y-1.850
T5
X4.190Y-1.480
X4.190Y-1.620
X4.510Y-1.600
T6
X4.370Y-1.500
T7
X4.200Y-2.020
X4.500Y-2.020
T8
X6.646Y-1.600
X7.114Y-1.600
X7.346Y-1.600
X7.814Y-1.600
T5
X3.410Y-1.610G85X3.410Y-1.670
G05
X3.640Y-1.550G85X3.580Y-1.550
G05
X3.640Y-1.790G85X3.580Y-1.790
G05
T0
M30
