G04 (created by PCBNEW-RS274X (2011-07-08)-stable) date Sun 04 Mar 2012 02:24:10 AM EST*
G01*
G70*
G90*
%MOIN*%
G04 Gerber Fmt 3.4, Leading zero omitted, Abs format*
%FSLAX34Y34*%
G04 APERTURE LIST*
%ADD10C,0.006000*%
%ADD11C,0.015000*%
%ADD12C,0.078700*%
%ADD13C,0.055000*%
%ADD14C,0.143700*%
%ADD15R,0.059100X0.059100*%
%ADD16C,0.059100*%
%ADD17C,0.066000*%
%ADD18C,0.189000*%
%ADD19R,0.189000X0.189000*%
%ADD20R,0.055000X0.055000*%
%ADD21C,0.100000*%
%ADD22C,0.080000*%
%ADD23C,0.035000*%
%ADD24C,0.050000*%
G04 APERTURE END LIST*
G54D10*
G54D11*
X38500Y-17000D02*
X38950Y-17000D01*
X38700Y-17250D02*
X38700Y-16800D01*
G54D12*
X46390Y-31100D03*
X40390Y-31100D03*
X40390Y-28100D03*
X46390Y-28100D03*
G54D13*
X62800Y-15900D03*
X62800Y-17900D03*
X59800Y-15900D03*
X59800Y-17900D03*
X58500Y-15900D03*
X58500Y-17900D03*
X55500Y-15900D03*
X55500Y-17900D03*
X54100Y-15900D03*
X54100Y-17900D03*
X51100Y-15900D03*
X51100Y-17900D03*
G54D14*
X73462Y-16000D03*
X78135Y-16000D03*
G54D15*
X77550Y-18500D03*
G54D16*
X77050Y-19500D03*
X76550Y-18500D03*
X76050Y-19500D03*
X75550Y-18500D03*
X75050Y-19500D03*
X74550Y-18500D03*
X74050Y-19500D03*
G54D14*
X66462Y-16000D03*
X71135Y-16000D03*
G54D15*
X70550Y-18500D03*
G54D16*
X70050Y-19500D03*
X69550Y-18500D03*
X69050Y-19500D03*
X68550Y-18500D03*
X68050Y-19500D03*
X67550Y-18500D03*
X67050Y-19500D03*
G54D13*
X64400Y-38900D03*
X67400Y-38900D03*
X40100Y-21900D03*
X37100Y-21900D03*
X77950Y-40150D03*
X74950Y-40150D03*
X77950Y-37150D03*
X74950Y-37150D03*
X77950Y-34150D03*
X74950Y-34150D03*
X78000Y-31200D03*
X75000Y-31200D03*
X54500Y-20900D03*
X51500Y-20900D03*
X56700Y-38900D03*
X59700Y-38900D03*
X56100Y-42100D03*
X59100Y-42100D03*
X75600Y-24500D03*
X75600Y-21500D03*
G54D17*
X78600Y-55400D03*
X79600Y-55400D03*
X72600Y-55400D03*
X73600Y-55400D03*
X75600Y-55400D03*
X76600Y-55400D03*
X69600Y-55400D03*
X70600Y-55400D03*
X38600Y-19400D03*
X38600Y-20400D03*
X72450Y-40150D03*
X73450Y-40150D03*
X72450Y-37150D03*
X73450Y-37150D03*
X72450Y-34150D03*
X73450Y-34150D03*
X72500Y-31200D03*
X73500Y-31200D03*
X33600Y-55400D03*
X34600Y-55400D03*
X36600Y-55400D03*
X37600Y-55400D03*
X39600Y-55400D03*
X40600Y-55400D03*
X42600Y-55400D03*
X43600Y-55400D03*
X45600Y-55400D03*
X46600Y-55400D03*
X48600Y-55400D03*
X49600Y-55400D03*
X51600Y-55400D03*
X52600Y-55400D03*
X54600Y-55400D03*
X55600Y-55400D03*
X57600Y-55400D03*
X58600Y-55400D03*
X60600Y-55400D03*
X61600Y-55400D03*
X63600Y-55400D03*
X64600Y-55400D03*
X66600Y-55400D03*
X67600Y-55400D03*
G54D18*
X36100Y-15500D03*
G54D19*
X36100Y-17900D03*
G54D18*
X34100Y-16400D03*
G54D16*
X39300Y-16300D03*
X39300Y-17300D03*
G54D20*
X70800Y-24500D03*
G54D13*
X71800Y-24500D03*
X72800Y-24500D03*
X73800Y-24500D03*
X73800Y-21500D03*
X72800Y-21500D03*
X71800Y-21500D03*
X70800Y-21500D03*
X62600Y-28100D03*
X61600Y-28100D03*
X60600Y-28100D03*
X59600Y-28100D03*
X58600Y-28100D03*
X57600Y-28100D03*
X56600Y-28100D03*
X55600Y-28100D03*
X54600Y-28100D03*
X53600Y-28100D03*
X52600Y-28100D03*
X51600Y-28100D03*
X50600Y-28100D03*
G54D20*
X63600Y-28100D03*
G54D13*
X50600Y-31100D03*
X51600Y-31100D03*
X52600Y-31100D03*
X53600Y-31100D03*
X54600Y-31100D03*
X55600Y-31100D03*
X56600Y-31100D03*
X57600Y-31100D03*
X58600Y-31100D03*
X59600Y-31100D03*
X60600Y-31100D03*
X61600Y-31100D03*
X62600Y-31100D03*
X63600Y-31100D03*
X51100Y-46400D03*
X52100Y-46400D03*
X53100Y-46400D03*
X54100Y-46400D03*
X55100Y-46400D03*
X56100Y-46400D03*
X57100Y-46400D03*
X58100Y-46400D03*
X59100Y-46400D03*
X60100Y-46400D03*
X61100Y-46400D03*
X62100Y-46400D03*
X63100Y-46400D03*
G54D20*
X50100Y-46400D03*
G54D13*
X63100Y-43400D03*
X62100Y-43400D03*
X61100Y-43400D03*
X60100Y-43400D03*
X59100Y-43400D03*
X58100Y-43400D03*
X57100Y-43400D03*
X56100Y-43400D03*
X55100Y-43400D03*
X54100Y-43400D03*
X53100Y-43400D03*
X52100Y-43400D03*
X51100Y-43400D03*
X50100Y-43400D03*
X57600Y-26700D03*
X56600Y-26700D03*
X57700Y-40300D03*
X56700Y-40300D03*
X52500Y-19400D03*
X51500Y-19400D03*
G54D20*
X63000Y-38900D03*
G54D13*
X62000Y-38900D03*
X61000Y-38900D03*
G54D21*
X45000Y-20200D03*
X42000Y-20200D03*
X41900Y-14800D03*
X41900Y-16200D03*
X45100Y-16000D03*
G54D22*
X43700Y-15000D03*
G54D23*
X78000Y-30100D03*
X78000Y-22800D03*
X57600Y-29900D03*
X56200Y-25300D03*
X57600Y-32300D03*
X55000Y-38900D03*
X33900Y-18400D03*
X55800Y-44300D03*
X46400Y-32600D03*
X50400Y-42500D03*
X59600Y-26400D03*
X65200Y-44900D03*
X48800Y-42600D03*
X45000Y-42600D03*
X56600Y-32300D03*
X57700Y-37700D03*
G54D24*
X78000Y-22800D02*
X78000Y-30100D01*
X56600Y-28900D02*
X57600Y-29900D01*
X56600Y-25700D02*
X56600Y-28900D01*
X56200Y-25300D02*
X56600Y-25700D01*
X57600Y-32300D02*
X58900Y-33600D01*
X58900Y-33600D02*
X58900Y-38200D01*
X58900Y-38200D02*
X58200Y-38900D01*
X58200Y-38900D02*
X55000Y-38900D01*
X55800Y-44300D02*
X43600Y-44300D01*
X33900Y-34600D02*
X33900Y-18400D01*
X43600Y-44300D02*
X33900Y-34600D01*
X46400Y-38500D02*
X46400Y-32600D01*
X50400Y-42500D02*
X46400Y-38500D01*
X64400Y-26400D02*
X59600Y-26400D01*
X68200Y-30200D02*
X64400Y-26400D01*
X68200Y-41900D02*
X68200Y-30200D01*
X65200Y-44900D02*
X68200Y-41900D01*
X48800Y-42600D02*
X45000Y-42600D01*
X56600Y-36600D02*
X56600Y-32300D01*
X57700Y-37700D02*
X56600Y-36600D01*
M02*
